<?xml version="1.0" encoding="UTF-8"?>
<svg xmlns="http://www.w3.org/2000/svg" xmlns:xlink="http://www.w3.org/1999/xlink" width="48px" height="48px" viewBox="0 0 48 48" version="1.1">
<defs>
<filter id="alpha" filterUnits="objectBoundingBox" x="0%" y="0%" width="100%" height="100%">
  <feColorMatrix type="matrix" in="SourceGraphic" values="0 0 0 0 1 0 0 0 0 1 0 0 0 0 1 0 0 0 1 0"/>
</filter>
<mask id="mask0">
  <g filter="url(#alpha)">
<rect x="0" y="0" width="48" height="48" style="fill:rgb(0%,0%,0%);fill-opacity:0.8;stroke:none;"/>
  </g>
</mask>
<clipPath id="clip1">
  <rect x="0" y="0" width="48" height="48"/>
</clipPath>
<g id="surface5" clip-path="url(#clip1)">
<path style=" stroke:none;fill-rule:nonzero;fill:rgb(99.607843%,38.039216%,51.764706%);fill-opacity:1;" d="M 7.707031 27.082031 C 9.542969 22.003906 10.332031 17.890625 13.835938 17.890625 C 19.179688 17.890625 20.449219 32.898438 25.03125 31.371094 C 29.609375 29.84375 29.101562 21.703125 36.226562 21.703125 C 37.582031 21.703125 38.964844 22.535156 40.316406 23.878906 L 40.316406 33.40625 L 24.011719 42.820312 L 7.707031 33.40625 Z M 7.707031 27.082031 "/>
</g>
</defs>
<g id="surface1">
<path style=" stroke:none;fill-rule:nonzero;fill:rgb(21.176471%,63.529412%,92.156863%);fill-opacity:1;" d="M 40.316406 24.140625 C 34.726562 24.25 35.890625 27.789062 31.949219 28.683594 C 27.945312 29.59375 27.3125 18.90625 23.3125 18.90625 C 19.308594 18.90625 18.421875 29.289062 13.410156 36.414062 L 13.265625 36.617188 L 24.011719 42.820312 L 40.316406 33.40625 Z M 40.316406 24.140625 "/>
<path style=" stroke:none;fill-rule:nonzero;fill:rgb(100%,80.784314%,33.72549%);fill-opacity:1;" d="M 40.316406 23.816406 C 38.445312 21.414062 37.175781 18.652344 34.445312 18.652344 C 29.609375 18.652344 30.882812 26.539062 25.539062 26.539062 C 20.195312 26.539062 19.632812 18.054688 13.582031 26.03125 C 11.652344 28.570312 10.101562 31.402344 8.878906 34.085938 L 24.011719 42.820312 L 40.316406 33.40625 Z M 40.316406 23.816406 "/>
<use xlink:href="#surface5" mask="url(#mask0)"/>
<path style=" stroke:none;fill-rule:nonzero;fill:rgb(90.588235%,91.372549%,92.941176%);fill-opacity:1;" d="M 24 44 L 6.675781 34 L 6.675781 14 L 24 4 L 41.324219 14 L 41.324219 34 Z M 8.710938 32.824219 L 24 41.652344 L 39.289062 32.824219 L 39.289062 15.175781 L 24 6.351562 L 8.710938 15.175781 Z M 8.710938 32.824219 "/>
</g>
</svg>
